<?xml version="1.0" encoding="UTF-8"?>
<svg width="24px" height="24px" viewBox="0 0 24 24" version="1.1" xmlns="http://www.w3.org/2000/svg" xmlns:xlink="http://www.w3.org/1999/xlink">
    <!-- Generator: Sketch 47.1 (45422) - http://www.bohemiancoding.com/sketch -->
    <title>icn-twitter</title>
    <desc>Created with Sketch.</desc>
    <defs></defs>
    <g id="Symbols" stroke="none" stroke-width="1" fill="none" fill-rule="evenodd">
        <g id="icn-twitter" fill-rule="nonzero" fill="#B0B0B0">
            <path d="M7.54752,21 C16.60416,21 21.55776,13.3048027 21.55776,6.63156222 C21.55776,6.41299342 21.55776,6.19540915 21.54336,5.97880943 C22.5070381,5.26394259 23.3389013,4.3788064 24,3.36484463 C23.1013239,3.7732353 22.1479961,4.04105778 21.17184,4.15937179 C22.1997542,3.5282613 22.9690786,2.53563394 23.33664,1.36621995 C22.3700712,1.9544411 21.3126203,2.36899003 20.20992,2.59197745 C18.6835995,0.927501426 16.2582906,0.520115066 14.2939673,1.59825725 C12.329644,2.67639943 11.314824,4.97194143 11.81856,7.19767513 C7.85941991,6.99412016 4.17069675,5.07630069 1.6704,1.92150286 C0.363477846,4.22892464 1.03102837,7.18079953 3.19488,8.66267687 C2.41127155,8.63885833 1.6447482,8.42206725 0.96,8.03059951 C0.96,8.05127493 0.96,8.07293491 0.96,8.09459488 C0.960641408,10.498451 2.61288143,12.5688905 4.9104,13.044883 C4.18547481,13.2476401 3.42487736,13.2772791 2.68704,13.1315229 C3.33211001,15.188652 5.18071158,16.5978902 7.28736,16.6384693 C5.54374564,18.0438391 3.38981713,18.8067582 1.17216,18.8044665 C0.780387426,18.8036951 0.388995903,18.779368 0,18.7316102 C2.25181051,20.2136215 4.87191687,20.9997213 7.54752,20.9960618" id="Shape"></path>
        </g>
    </g>
</svg>