<?xml version="1.0" standalone="no"?>
<!DOCTYPE svg PUBLIC "-//W3C//DTD SVG 20010904//EN"
 "http://www.w3.org/TR/2001/REC-SVG-20010904/DTD/svg10.dtd">
<svg version="1.0" xmlns="http://www.w3.org/2000/svg"
 width="344.000000pt" height="349.000000pt" viewBox="0 0 344.000000 349.000000"
 preserveAspectRatio="xMidYMid meet">
<metadata>
Created by potrace 1.15, written by Peter Selinger 2001-2017
</metadata>
<g transform="translate(0.000000,349.000000) scale(0.100000,-0.100000)"
fill="#000000" stroke="none">
<path d="M1565 3474 c-148 -20 -193 -29 -280 -51 -589 -152 -1066 -629 -1218
-1218 -45 -175 -52 -239 -51 -450 0 -176 4 -215 27 -326 68 -323 210 -598 432
-836 746 -801 2060 -693 2671 219 467 696 361 1635 -249 2203 -237 221 -515
365 -831 431 -95 19 -159 26 -296 29 -96 2 -188 2 -205 -1z m802 -630 c32 -9
34 -24 24 -161 -12 -147 -35 -211 -90 -245 -35 -22 -46 -23 -308 -26 l-272 -3
-5 -42 c-7 -53 -26 -325 -26 -366 l0 -31 228 0 c172 0 233 -3 246 -13 17 -12
17 -23 8 -143 -20 -256 -55 -284 -357 -284 -85 0 -155 -3 -156 -7 0 -5 -8
-108 -17 -230 l-17 -223 350 0 c280 0 355 -3 370 -14 17 -12 18 -22 8 -150
-12 -163 -33 -216 -98 -250 -39 -20 -56 -21 -480 -24 -442 -3 -524 1 -585 33
-45 23 -89 76 -106 129 -23 68 -18 184 50 1066 31 393 59 773 62 843 7 118 9
130 28 137 24 10 1108 13 1143 4z"/>
</g>
</svg>
